<?xml version="1.0" encoding="UTF-8" standalone="no"?>
<!DOCTYPE svg PUBLIC "-//W3C//DTD SVG 1.1//EN" "http://www.w3.org/Graphics/SVG/1.1/DTD/svg11.dtd">
<svg width="100%" height="100%" viewBox="0 0 2992 2084" version="1.1" xmlns="http://www.w3.org/2000/svg" xmlns:xlink="http://www.w3.org/1999/xlink" xml:space="preserve" xmlns:serif="http://www.serif.com/" style="fill-rule:evenodd;clip-rule:evenodd;stroke-linejoin:round;stroke-miterlimit:2;">
    <g transform="matrix(0.1,0,0,-0.1,0,2084)">
        <path d="M12780,20500L12780,14410L18625,8565C21840,5350 24477,2720 24485,2720C24493,2720 24500,2728 24500,2738C24500,2748 24509,2762 24520,2770C24531,2778 24540,2791 24540,2800C24540,2809 24549,2822 24560,2830C24571,2838 24580,2851 24580,2860C24580,2869 24589,2882 24600,2890C24611,2898 24620,2912 24620,2922C24620,2932 24625,2940 24630,2940C24636,2940 24640,2948 24640,2958C24640,2968 24649,2982 24660,2990C24671,2998 24680,3012 24680,3022C24680,3032 24685,3040 24690,3040C24696,3040 24700,3048 24700,3058C24700,3068 24709,3082 24720,3090C24731,3098 24740,3112 24740,3122C24740,3132 24745,3140 24750,3140C24756,3140 24760,3149 24760,3160C24760,3171 24765,3180 24770,3180C24776,3180 24780,3189 24780,3200C24780,3211 24785,3220 24790,3220C24796,3220 24800,3228 24800,3238C24800,3248 24809,3262 24820,3270C24831,3278 24840,3292 24840,3302C24840,3312 24845,3320 24850,3320C24856,3320 24860,3329 24860,3340C24860,3351 24865,3360 24870,3360C24876,3360 24880,3369 24880,3380C24880,3391 24885,3400 24890,3400C24896,3400 24900,3409 24900,3420C24900,3431 24905,3440 24910,3440C24916,3440 24920,3449 24920,3460C24920,3471 24925,3480 24930,3480C24936,3480 24940,3489 24940,3500C24940,3511 24945,3520 24950,3520C24956,3520 24960,3529 24960,3540C24960,3551 24965,3560 24970,3560C24976,3560 24980,3569 24980,3580C24980,3591 24985,3600 24990,3600C24996,3600 25000,3609 25000,3620C25000,3631 25005,3640 25010,3640C25016,3640 25020,3649 25020,3660C25020,3671 25025,3680 25030,3680C25036,3680 25040,3694 25040,3710C25040,3727 25045,3740 25050,3740C25056,3740 25060,3749 25060,3760C25060,3771 25065,3780 25070,3780C25076,3780 25080,3789 25080,3800C25080,3811 25085,3820 25090,3820C25096,3820 25100,3829 25100,3840C25100,3851 25105,3860 25110,3860C25116,3860 25120,3874 25120,3890C25120,3907 25125,3920 25130,3920C25136,3920 25140,3929 25140,3940C25140,3951 25145,3960 25150,3960C25156,3960 25160,3969 25160,3980C25160,3991 25165,4000 25170,4000C25176,4000 25180,4014 25180,4030C25180,4047 25185,4060 25190,4060C25196,4060 25200,4069 25200,4080C25200,4091 25205,4100 25210,4100C25216,4100 25220,4114 25220,4130C25220,4147 25225,4160 25230,4160C25236,4160 25240,4169 25240,4180C25240,4191 25245,4200 25250,4200C25256,4200 25260,4214 25260,4230C25260,4247 25265,4260 25270,4260C25276,4260 25280,4274 25280,4290C25280,4307 25285,4320 25290,4320C25296,4320 25300,4329 25300,4340C25300,4351 25305,4360 25310,4360C25316,4360 25320,4374 25320,4390C25320,4407 25325,4420 25330,4420C25336,4420 25340,4434 25340,4450C25340,4467 25345,4480 25350,4480C25356,4480 25360,4494 25360,4510C25360,4527 25365,4540 25370,4540C25376,4540 25380,4554 25380,4570C25380,4587 25385,4600 25390,4600C25396,4600 25400,4614 25400,4630C25400,4647 25405,4660 25410,4660C25416,4660 25420,4674 25420,4690C25420,4707 25425,4720 25430,4720C25436,4720 25440,4734 25440,4750C25440,4767 25445,4780 25450,4780C25456,4780 25460,4794 25460,4810C25460,4827 25465,4840 25470,4840C25476,4840 25480,4858 25480,4880C25480,4902 25485,4920 25490,4920C25496,4920 25500,4934 25500,4950C25500,4967 25505,4980 25510,4980C25516,4980 25520,4994 25520,5010C25520,5027 25525,5040 25530,5040C25536,5040 25540,5058 25540,5080C25540,5102 25545,5120 25550,5120C25556,5120 25560,5138 25560,5160C25560,5182 25565,5200 25570,5200C25576,5200 25580,5214 25580,5230C25580,5247 25585,5260 25590,5260C25596,5260 25600,5278 25600,5300C25600,5322 25605,5340 25610,5340C25616,5340 25620,5358 25620,5380C25620,5402 25625,5420 25630,5420C25636,5420 25640,5434 25640,5450C25640,5467 25645,5480 25650,5480C25656,5480 25660,5498 25660,5520C25660,5542 25665,5560 25670,5560C25676,5560 25680,5578 25680,5600C25680,5622 25685,5640 25690,5640C25696,5640 25700,5654 25700,5670C25700,5687 25705,5700 25710,5700C25716,5700 25720,5718 25720,5740C25720,5762 25725,5780 25730,5780C25736,5780 25740,5803 25740,5830C25740,5858 25745,5880 25750,5880C25756,5880 25760,5898 25760,5920C25760,5942 25765,5960 25770,5960C25776,5960 25780,5978 25780,6000C25780,6022 25785,6040 25790,6040C25796,6040 25800,6058 25800,6080C25800,6102 25805,6120 25810,6120C25816,6120 25820,6138 25820,6160C25820,6182 25825,6200 25830,6200C25836,6200 25840,6223 25840,6250C25840,6278 25845,6300 25850,6300C25856,6300 25860,6323 25860,6350C25860,6378 25865,6400 25870,6400C25876,6400 25880,6418 25880,6440C25880,6462 25885,6480 25890,6480C25896,6480 25900,6503 25900,6530C25900,6558 25905,6580 25910,6580C25916,6580 25920,6603 25920,6630C25920,6658 25925,6680 25930,6680C25936,6680 25940,6703 25940,6730C25940,6758 25945,6780 25950,6780C25956,6780 25960,6807 25960,6840C25960,6873 25964,6900 25970,6900C25976,6900 25980,6923 25980,6950C25980,6978 25985,7000 25990,7000C25996,7000 26000,7023 26000,7050C26000,7078 26005,7100 26010,7100C26016,7100 26020,7130 26020,7170C26020,7210 26024,7240 26030,7240C26036,7240 26040,7267 26040,7300C26040,7333 26044,7360 26050,7360C26056,7360 26060,7387 26060,7420C26060,7453 26064,7480 26070,7480C26076,7480 26080,7510 26080,7550C26080,7590 26084,7620 26090,7620C26096,7620 26100,7653 26100,7700C26100,7747 26104,7780 26110,7780C26116,7780 26120,7813 26120,7860C26120,7907 26124,7940 26130,7940C26136,7940 26140,7973 26140,8020C26140,8067 26144,8100 26150,8100C26156,8100 26160,8137 26160,8190C26160,8243 26164,8280 26170,8280C26176,8280 26180,8320 26180,8380C26180,8440 26184,8480 26190,8480C26196,8480 26200,8527 26200,8600C26200,8673 26204,8720 26210,8720C26216,8720 26220,8767 26220,8840C26220,8913 26224,8960 26230,8960C26236,8960 26240,9017 26240,9110C26240,9203 26244,9260 26250,9260C26310,9260 26273,9297 20665,14905L15070,20500L12780,20500Z" style="fill:rgb(62,110,140);fill-rule:nonzero;"/>
        <path d="M4340,19240C4340,19218 4336,19200 4330,19200C4324,19200 4320,19170 4320,19130C4320,19090 4316,19060 4310,19060C4304,19060 4300,19030 4300,18990C4300,18950 4296,18920 4290,18920C4284,18920 4280,18893 4280,18860C4280,18827 4276,18800 4270,18800C4264,18800 4260,18770 4260,18730C4260,18690 4256,18660 4250,18660C4244,18660 4240,18630 4240,18590C4240,18550 4236,18520 4230,18520C4224,18520 4220,18490 4220,18450C4220,18410 4216,18380 4210,18380C4204,18380 4200,18347 4200,18300C4200,18253 4196,18220 4190,18220C4184,18220 4180,18190 4180,18150C4180,18110 4176,18080 4170,18080C4164,18080 4160,18047 4160,18000C4160,17953 4156,17920 4150,17920C4144,17920 4140,17887 4140,17840C4140,17793 4136,17760 4130,17760C4124,17760 4120,17727 4120,17680C4120,17633 4116,17600 4110,17600C4104,17600 4100,17567 4100,17520C4100,17473 4096,17440 4090,17440C4084,17440 4080,17403 4080,17350C4080,17297 4076,17260 4070,17260C4064,17260 4060,17223 4060,17170C4060,17117 4056,17080 4050,17080C4044,17080 4040,17043 4040,16990C4040,16937 4036,16900 4030,16900C4024,16900 4020,16863 4020,16810C4020,16757 4016,16720 4010,16720C4004,16720 4000,16677 4000,16610C4000,16543 3996,16500 3990,16500C3984,16500 3980,16460 3980,16400C3980,16340 3976,16300 3970,16300C3964,16300 3960,16260 3960,16200C3960,16140 3956,16100 3950,16100C3944,16100 3940,16053 3940,15980C3940,15907 3936,15860 3930,15860C3924,15860 3920,15813 3920,15740C3920,15667 3916,15620 3910,15620C3904,15620 3900,15573 3900,15500C3900,15427 3896,15380 3890,15380C3884,15380 3880,15323 3880,15230C3880,15137 3876,15080 3870,15080C3864,15080 3860,15027 3860,14940C3860,14853 3856,14800 3850,14800C3844,14800 3840,14737 3840,14630C3840,14523 3836,14460 3830,14460C3824,14460 3820,14393 3820,14280C3820,14167 3816,14100 3810,14100C3804,14100 3800,14020 3800,13880C3800,13740 3796,13660 3790,13660C3784,13660 3780,13567 3780,13400C3780,13233 3776,13140 3770,13140C3764,13140 3760,13007 3760,12760C3760,12513 3756,12380 3750,12380C3743,12380 3740,12037 3740,11370C3740,10703 3743,10360 3750,10360C3756,10360 3760,10257 3760,10070C3760,9883 3764,9780 3770,9780C3776,9780 3780,9713 3780,9600C3780,9487 3784,9420 3790,9420C3796,9420 3800,9363 3800,9270C3800,9177 3804,9120 3810,9120C3816,9120 3820,9073 3820,9000C3820,8927 3824,8880 3830,8880C3836,8880 3840,8837 3840,8770C3840,8703 3844,8660 3850,8660C3856,8660 3860,8620 3860,8560C3860,8500 3864,8460 3870,8460C3876,8460 3880,8430 3880,8390C3880,8350 3884,8320 3890,8320C3896,8320 3900,8290 3900,8250C3900,8210 3904,8180 3910,8180C3916,8180 3920,8147 3920,8100C3920,8053 3924,8020 3930,8020C3936,8020 3940,7993 3940,7960C3940,7927 3944,7900 3950,7900C3956,7900 3960,7873 3960,7840C3960,7807 3964,7780 3970,7780C3976,7780 3980,7758 3980,7730C3980,7703 3985,7680 3990,7680C3996,7680 4000,7653 4000,7620C4000,7587 4004,7560 4010,7560C4016,7560 4020,7538 4020,7510C4020,7483 4025,7460 4030,7460C4036,7460 4040,7438 4040,7410C4040,7383 4045,7360 4050,7360C4056,7360 4060,7338 4060,7310C4060,7283 4065,7260 4070,7260C4076,7260 4080,7238 4080,7210C4080,7183 4085,7160 4090,7160C4096,7160 4100,7138 4100,7110C4100,7083 4105,7060 4110,7060C4116,7060 4120,7042 4120,7020C4120,6998 4125,6980 4130,6980C4136,6980 4140,6962 4140,6940C4140,6918 4145,6900 4150,6900C4156,6900 4160,6882 4160,6860C4160,6838 4165,6820 4170,6820C4176,6820 4180,6802 4180,6780C4180,6758 4185,6740 4190,6740C4196,6740 4200,6722 4200,6700C4200,6678 4205,6660 4210,6660C4216,6660 4220,6642 4220,6620C4220,6598 4225,6580 4230,6580C4236,6580 4240,6562 4240,6540C4240,6518 4245,6500 4250,6500C4256,6500 4260,6482 4260,6460C4260,6438 4265,6420 4270,6420C4276,6420 4280,6407 4280,6390C4280,6374 4285,6360 4290,6360C4296,6360 4300,6342 4300,6320C4300,6298 4305,6280 4310,6280C4316,6280 4320,6267 4320,6250C4320,6234 4325,6220 4330,6220C4336,6220 4340,6202 4340,6180C4340,6158 4345,6140 4350,6140C4356,6140 4360,6127 4360,6110C4360,6094 4365,6080 4370,6080C4376,6080 4380,6062 4380,6040C4380,6018 4385,6000 4390,6000C4396,6000 4400,5987 4400,5970C4400,5954 4405,5940 4410,5940C4416,5940 4420,5927 4420,5910C4420,5894 4425,5880 4430,5880C4436,5880 4440,5867 4440,5850C4440,5834 4445,5820 4450,5820C4456,5820 4460,5807 4460,5790C4460,5774 4465,5760 4470,5760C4476,5760 4480,5742 4480,5720C4480,5698 4485,5680 4490,5680C4496,5680 4500,5667 4500,5650C4500,5634 4505,5620 4510,5620C4516,5620 4520,5607 4520,5590C4520,5574 4525,5560 4530,5560C4536,5560 4540,5547 4540,5530C4540,5514 4545,5500 4550,5500C4556,5500 4560,5491 4560,5480C4560,5469 4565,5460 4570,5460C4576,5460 4580,5447 4580,5430C4580,5414 4585,5400 4590,5400C4596,5400 4600,5387 4600,5370C4600,5354 4605,5340 4610,5340C4616,5340 4620,5327 4620,5310C4620,5294 4625,5280 4630,5280C4636,5280 4640,5267 4640,5250C4640,5234 4645,5220 4650,5220C4656,5220 4660,5211 4660,5200C4660,5189 4665,5180 4670,5180C4676,5180 4680,5167 4680,5150C4680,5134 4685,5120 4690,5120C4696,5120 4700,5107 4700,5090C4700,5074 4705,5060 4710,5060C4716,5060 4720,5051 4720,5040C4720,5029 4725,5020 4730,5020C4736,5020 4740,5007 4740,4990C4740,4974 4745,4960 4750,4960C4756,4960 4760,4951 4760,4940C4760,4929 4765,4920 4770,4920C4776,4920 4780,4907 4780,4890C4780,4874 4785,4860 4790,4860C4796,4860 4800,4851 4800,4840C4800,4829 4805,4820 4810,4820C4816,4820 4820,4807 4820,4790C4820,4774 4825,4760 4830,4760C4836,4760 4840,4751 4840,4740C4840,4729 4845,4720 4850,4720C4856,4720 4860,4707 4860,4690C4860,4674 4865,4660 4870,4660C4876,4660 4880,4651 4880,4640C4880,4629 4885,4620 4890,4620C4896,4620 4900,4611 4900,4600C4900,4589 4905,4580 4910,4580C4916,4580 4920,4571 4920,4560C4920,4549 4925,4540 4930,4540C4936,4540 4940,4527 4940,4510C4940,4494 4945,4480 4950,4480C4956,4480 4960,4471 4960,4460C4960,4449 4965,4440 4970,4440C4976,4440 4980,4431 4980,4420C4980,4409 4985,4400 4990,4400C4996,4400 5000,4391 5000,4380C5000,4369 5005,4360 5010,4360C5016,4360 5020,4347 5020,4330C5020,4314 5025,4300 5030,4300C5036,4300 5040,4291 5040,4280C5040,4269 5045,4260 5050,4260C5056,4260 5060,4251 5060,4240C5060,4229 5065,4220 5070,4220C5076,4220 5080,4211 5080,4200C5080,4189 5085,4180 5090,4180C5096,4180 5100,4171 5100,4160C5100,4149 5105,4140 5110,4140C5116,4140 5120,4131 5120,4120C5120,4109 5125,4100 5130,4100C5136,4100 5140,4091 5140,4080C5140,4069 5145,4060 5150,4060C5156,4060 5160,4051 5160,4040C5160,4029 5165,4020 5170,4020C5176,4020 5180,4011 5180,4000C5180,3989 5185,3980 5190,3980C5196,3980 5200,3971 5200,3960C5200,3949 5205,3940 5210,3940C5216,3940 5220,3931 5220,3920C5220,3909 5225,3900 5230,3900C5236,3900 5240,3891 5240,3880C5240,3869 5245,3860 5250,3860C5256,3860 5260,3851 5260,3840C5260,3829 5265,3820 5270,3820C5276,3820 5280,3811 5280,3800C5280,3789 5285,3780 5290,3780C5296,3780 5300,3771 5300,3760C5300,3749 5305,3740 5310,3740C5316,3740 5320,3731 5320,3720C5320,3709 5325,3700 5330,3700C5336,3700 5340,3692 5340,3682C5340,3672 5349,3658 5360,3650C5371,3642 5380,3628 5380,3618C5380,3608 5385,3600 5390,3600C5396,3600 5400,3591 5400,3580C5400,3569 5405,3560 5410,3560C5416,3560 5420,3551 5420,3540C5420,3529 5425,3520 5430,3520C5436,3520 5440,3512 5440,3502C5440,3492 5449,3478 5460,3470C5471,3462 5480,3448 5480,3438C5480,3428 5485,3420 5490,3420C5496,3420 5500,3411 5500,3400C5500,3389 5505,3380 5510,3380C5516,3380 5520,3372 5520,3362C5520,3352 5529,3338 5540,3330C5551,3322 5560,3309 5560,3300C5560,3291 5569,3278 5580,3270C5591,3262 5600,3248 5600,3238C5600,3228 5605,3220 5610,3220C5616,3220 5620,3212 5620,3202C5620,3192 5629,3178 5640,3170C5651,3162 5660,3149 5660,3140C5660,3131 5669,3118 5680,3110C5691,3102 5700,3088 5700,3078C5700,3068 5705,3060 5710,3060C5716,3060 5720,3052 5720,3042C5720,3032 5729,3018 5740,3010C5751,3002 5760,2989 5760,2980C5760,2971 5769,2958 5780,2950C5791,2942 5800,2929 5800,2922C5800,2914 5813,2895 5830,2880C5847,2865 5860,2846 5860,2838C5860,2831 5869,2818 5880,2810C5891,2802 5900,2789 5900,2782C5900,2775 5918,2751 5940,2730C5962,2709 5980,2686 5980,2680C5980,2674 5998,2651 6020,2630C6042,2609 6060,2586 6060,2580C6060,2574 6082,2547 6110,2520C6137,2493 6160,2466 6160,2460C6160,2454 6209,2400 6270,2340C6330,2280 6380,2224 6380,2215C6380,2207 6387,2200 6395,2200C6404,2200 6478,2132 6560,2050C6642,1967 6714,1900 6720,1900C6726,1900 6758,1873 6790,1840C6822,1807 6854,1780 6860,1780C6866,1780 6889,1762 6910,1740C6931,1718 6954,1700 6960,1700C6967,1700 6985,1687 7000,1670C7015,1654 7033,1640 7040,1640C7047,1640 7065,1627 7080,1610C7095,1594 7113,1580 7120,1580C7127,1580 7145,1567 7160,1550C7175,1534 7194,1520 7202,1520C7209,1520 7222,1511 7230,1500C7238,1489 7251,1480 7260,1480C7269,1480 7282,1471 7290,1460C7298,1449 7311,1440 7320,1440C7329,1440 7342,1431 7350,1420C7358,1409 7371,1400 7380,1400C7389,1400 7402,1391 7410,1380C7418,1369 7431,1360 7440,1360C7449,1360 7462,1351 7470,1340C7478,1329 7492,1320 7502,1320C7512,1320 7520,1316 7520,1310C7520,1305 7528,1300 7538,1300C7548,1300 7562,1291 7570,1280C7578,1269 7592,1260 7602,1260C7612,1260 7620,1256 7620,1250C7620,1245 7628,1240 7638,1240C7648,1240 7662,1231 7670,1220C7678,1209 7692,1200 7702,1200C7712,1200 7720,1196 7720,1190C7720,1185 7728,1180 7738,1180C7748,1180 7762,1171 7770,1160C7778,1149 7792,1140 7802,1140C7812,1140 7820,1136 7820,1130C7820,1125 7829,1120 7840,1120C7851,1120 7860,1116 7860,1110C7860,1105 7869,1100 7880,1100C7891,1100 7900,1096 7900,1090C7900,1085 7909,1080 7920,1080C7931,1080 7940,1076 7940,1070C7940,1065 7949,1060 7960,1060C7971,1060 7980,1056 7980,1050C7980,1045 7989,1040 8000,1040C8011,1040 8020,1036 8020,1030C8020,1025 8029,1020 8040,1020C8051,1020 8060,1016 8060,1010C8060,1005 8069,1000 8080,1000C8091,1000 8100,996 8100,990C8100,985 8109,980 8120,980C8131,980 8140,976 8140,970C8140,965 8149,960 8160,960C8171,960 8180,956 8180,950C8180,945 8189,940 8200,940C8211,940 8220,936 8220,930C8220,925 8229,920 8240,920C8251,920 8260,916 8260,910C8260,905 8269,900 8280,900C8291,900 8300,896 8300,890C8300,885 8309,880 8320,880C8331,880 8340,876 8340,870C8340,865 8354,860 8370,860C8387,860 8400,856 8400,850C8400,845 8409,840 8420,840C8431,840 8440,836 8440,830C8440,825 8449,820 8460,820C8471,820 8480,816 8480,810C8480,805 8494,800 8510,800C8527,800 8540,796 8540,790C8540,785 8549,780 8560,780C8571,780 8580,776 8580,770C8580,765 8594,760 8610,760C8627,760 8640,756 8640,750C8640,745 8654,740 8670,740C8687,740 8700,736 8700,730C8700,725 8709,720 8720,720C8731,720 8740,716 8740,710C8740,705 8754,700 8770,700C8787,700 8800,696 8800,690C8800,685 8814,680 8830,680C8847,680 8860,676 8860,670C8860,665 8874,660 8890,660C8907,660 8920,656 8920,650C8920,645 8934,640 8950,640C8967,640 8980,636 8980,630C8980,625 8994,620 9010,620C9027,620 9040,616 9040,610C9040,605 9054,600 9070,600C9087,600 9100,596 9100,590C9100,585 9118,580 9140,580C9162,580 9180,576 9180,570C9180,565 9194,560 9210,560C9227,560 9240,556 9240,550C9240,545 9258,540 9280,540C9302,540 9320,536 9320,530C9320,525 9338,520 9360,520C9382,520 9400,516 9400,510C9400,505 9418,500 9440,500C9462,500 9480,496 9480,490C9480,485 9498,480 9520,480C9542,480 9560,476 9560,470C9560,465 9583,460 9610,460C9638,460 9660,456 9660,450C9660,445 9683,440 9710,440C9738,440 9760,436 9760,430C9760,424 9787,420 9820,420C9853,420 9880,416 9880,410C9880,404 9907,400 9940,400C9973,400 10000,396 10000,390C10000,384 10027,380 10060,380C10093,380 10120,376 10120,370C10120,364 10153,360 10200,360C10247,360 10280,356 10280,350C10280,344 10320,340 10380,340C10440,340 10480,336 10480,330C10480,324 10537,320 10630,320C10723,320 10780,316 10780,310C10780,303 12320,300 15380,300C18440,300 19980,303 19980,310C19980,316 20033,320 20120,320C20207,320 20260,324 20260,330C20260,336 20300,340 20360,340C20420,340 20460,344 20460,350C20460,356 20493,360 20540,360C20587,360 20620,364 20620,370C20620,376 20647,380 20680,380C20713,380 20740,384 20740,390C20740,396 20767,400 20800,400C20833,400 20860,404 20860,410C20860,416 20883,420 20910,420C20938,420 20960,425 20960,430C20960,436 20983,440 21010,440C21038,440 21060,445 21060,450C21060,456 21078,460 21100,460C21122,460 21140,465 21140,470C21140,476 21158,480 21180,480C21202,480 21220,485 21220,490C21220,496 21238,500 21260,500C21282,500 21300,505 21300,510C21300,516 21318,520 21340,520C21362,520 21380,525 21380,530C21380,536 21394,540 21410,540C21427,540 21440,545 21440,550C21440,556 21458,560 21480,560C21502,560 21520,565 21520,570C21520,576 21534,580 21550,580C21567,580 21580,585 21580,590C21580,596 21594,600 21610,600C21627,600 21640,605 21640,610C21640,616 21654,620 21670,620C21687,620 21700,625 21700,630C21700,636 21714,640 21730,640C21747,640 21760,645 21760,650C21760,656 21774,660 21790,660C21807,660 21820,665 21820,670C21820,676 21834,680 21850,680C21867,680 21880,685 21880,690C21880,696 21889,700 21900,700C21911,700 21920,705 21920,710C21920,716 21934,720 21950,720C21967,720 21980,725 21980,730C21980,736 21989,740 22000,740C22011,740 22020,745 22020,750C22020,756 22034,760 22050,760C22067,760 22080,765 22080,770C22080,776 22089,780 22100,780C22111,780 22120,785 22120,790C22120,796 22129,800 22140,800C22151,800 22160,805 22160,810C22160,816 22174,820 22190,820C22207,820 22220,825 22220,830C22220,836 22229,840 22240,840C22251,840 22260,845 22260,850C22260,856 22269,860 22280,860C22291,860 22300,865 22300,870C22300,876 22309,880 22320,880C22331,880 22340,885 22340,890C22340,896 22349,900 22360,900C22371,900 22380,905 22380,910C22380,916 22389,920 22400,920C22411,920 22420,925 22420,930C22420,936 22429,940 22440,940C22451,940 22460,945 22460,950C22460,956 22469,960 22480,960C22491,960 22500,965 22500,970C22500,976 22509,980 22520,980C22531,980 22540,985 22540,990C22540,996 22547,1000 22556,1000C22574,1000 22600,1023 22600,1039C22600,1045 21293,2357 19695,3955L16790,6860L13945,6860C12055,6860 11100,6863 11100,6870C11100,6876 11040,6880 10940,6880C10840,6880 10780,6884 10780,6890C10780,6896 10758,6900 10730,6900C10703,6900 10680,6905 10680,6910C10680,6916 10658,6920 10630,6920C10603,6920 10580,6925 10580,6930C10580,6936 10567,6940 10550,6940C10534,6940 10520,6945 10520,6950C10520,6956 10502,6960 10480,6960C10458,6960 10440,6965 10440,6970C10440,6976 10431,6980 10420,6980C10409,6980 10400,6985 10400,6990C10400,6996 10387,7000 10370,7000C10354,7000 10340,7005 10340,7010C10340,7016 10331,7020 10320,7020C10309,7020 10300,7025 10300,7030C10300,7036 10291,7040 10280,7040C10269,7040 10260,7045 10260,7050C10260,7056 10251,7060 10240,7060C10229,7060 10220,7065 10220,7070C10220,7076 10212,7080 10202,7080C10192,7080 10178,7089 10170,7100C10162,7111 10149,7120 10140,7120C10131,7120 10118,7129 10110,7140C10102,7151 10089,7160 10082,7160C10074,7160 10055,7174 10040,7190C10025,7207 10007,7220 10001,7220C9986,7220 9760,7446 9760,7461C9760,7467 9746,7485 9730,7500C9714,7515 9700,7533 9700,7540C9700,7547 9686,7565 9670,7580C9653,7595 9640,7615 9640,7624C9640,7633 9636,7640 9630,7640C9625,7640 9620,7648 9620,7658C9620,7668 9611,7682 9600,7690C9589,7698 9580,7711 9580,7720C9580,7729 9571,7742 9560,7750C9549,7758 9540,7772 9540,7782C9540,7792 9536,7800 9530,7800C9525,7800 9520,7809 9520,7820C9520,7831 9516,7840 9510,7840C9505,7840 9500,7849 9500,7860C9500,7871 9496,7880 9490,7880C9485,7880 9480,7889 9480,7900C9480,7911 9476,7920 9470,7920C9465,7920 9460,7929 9460,7940C9460,7951 9456,7960 9450,7960C9445,7960 9440,7969 9440,7980C9440,7991 9436,8000 9430,8000C9425,8000 9420,8009 9420,8020C9420,8031 9416,8040 9410,8040C9405,8040 9400,8054 9400,8070C9400,8087 9396,8100 9390,8100C9385,8100 9380,8109 9380,8120C9380,8131 9376,8140 9370,8140C9365,8140 9360,8154 9360,8170C9360,8187 9356,8200 9350,8200C9345,8200 9340,8209 9340,8220C9340,8231 9336,8240 9330,8240C9325,8240 9320,8254 9320,8270C9320,8287 9316,8300 9310,8300C9305,8300 9300,8309 9300,8320C9300,8331 9296,8340 9290,8340C9285,8340 9280,8358 9280,8380C9280,8402 9276,8420 9270,8420C9265,8420 9260,8434 9260,8450C9260,8467 9256,8480 9250,8480C9245,8480 9240,8494 9240,8510C9240,8527 9236,8540 9230,8540C9225,8540 9220,8554 9220,8570C9220,8587 9216,8600 9210,8600C9205,8600 9200,8618 9200,8640C9200,8662 9196,8680 9190,8680C9185,8680 9180,8698 9180,8720C9180,8742 9176,8760 9170,8760C9165,8760 9160,8778 9160,8800C9160,8822 9156,8840 9150,8840C9145,8840 9140,8858 9140,8880C9140,8902 9136,8920 9130,8920C9125,8920 9120,8943 9120,8970C9120,8998 9116,9020 9110,9020C9105,9020 9100,9038 9100,9060C9100,9082 9096,9100 9090,9100C9084,9100 9080,9127 9080,9160C9080,9193 9076,9220 9070,9220C9064,9220 9060,9247 9060,9280C9060,9313 9056,9340 9050,9340C9045,9340 9040,9363 9040,9390C9040,9418 9036,9440 9030,9440C9024,9440 9020,9473 9020,9520C9020,9567 9016,9600 9010,9600C9004,9600 9000,9630 9000,9670C9000,9710 8996,9740 8990,9740C8984,9740 8980,9780 8980,9840C8980,9900 8976,9940 8970,9940C8964,9940 8960,9983 8960,10050C8960,10117 8956,10160 8950,10160C8944,10160 8940,10213 8940,10300C8940,10387 8936,10440 8930,10440C8924,10440 8920,10533 8920,10700C8920,10867 8916,10960 8910,10960C8903,10960 8900,11120 8900,11420C8900,11720 8903,11880 8910,11880C8917,11880 8920,12030 8920,12310C8920,12590 8923,12740 8930,12740C8936,12740 8940,12833 8940,13000C8940,13167 8944,13260 8950,13260C8956,13260 8960,13337 8960,13470C8960,13603 8964,13680 8970,13680C8976,13680 8980,13743 8980,13850C8980,13957 8984,14020 8990,14020C8996,14020 9000,14073 9000,14160C9000,14247 9004,14300 9010,14300C9016,14300 9020,14353 9020,14440C9020,14527 9024,14580 9030,14580C9036,14580 9040,14587 9040,14595C9040,14615 4375,19280 4355,19280C4344,19280 4340,19269 4340,19240Z" style="fill:rgb(62,110,140);fill-rule:nonzero;"/>
    </g>
</svg>
